<?xml version="1.0" encoding="UTF-8" standalone="no"?>
<svg
   xmlns:dc="http://purl.org/dc/elements/1.1/"
   xmlns:cc="http://creativecommons.org/ns#"
   xmlns:rdf="http://www.w3.org/1999/02/22-rdf-syntax-ns#"
   xmlns:svg="http://www.w3.org/2000/svg"
   xmlns="http://www.w3.org/2000/svg"
   style="fill:#000000"
   id="svg4633"
   preserveAspectRatio="xMidYMid meet"
   version="1.1"
   viewBox="0 0 27 5.13"
   height="114"
   width="600">
  <metadata
     id="metadata4639">
    <rdf:RDF>
      <cc:Work
         rdf:about="">
        <dc:format>image/svg+xml</dc:format>
        <dc:type
           rdf:resource="http://purl.org/dc/dcmitype/StillImage" />
        <dc:title>half-star-solid</dc:title>
      </cc:Work>
    </rdf:RDF>
  </metadata>
  <defs
     id="defs4637" />
  <title
     id="title4627">half-star-solid</title>
  <path
     id="path4629"
     d="m 2.6472135,0.076791 c -0.13814,0 -0.27629,0.07762 -0.33305,0.232841 l -0.49518,1.346565 c -0.005,0.01358 -0.0175,0.02297 -0.0319,0.02397 l -1.43763001,0.0543 c -0.33839,0.0055 -0.47746,0.436753 -0.20605,0.638942 L 1.2711335,3.259948 c 0.0115,0.0091 0.0166,0.02416 0.0128,0.03834 L 0.89577349,4.673605 c -0.0915,0.318726 0.26548001,0.577518 0.53991001,0.39136 l 1.19164,-0.798682 c 0.012,-0.0083 0.0279,-0.0083 0.0399,0 l 1.19163,0.798682 c 0.12193,0.08671 0.2854,0.08671 0.40733,0 0.12093,-0.08681 0.17404,-0.2404 0.13257,-0.383371 l -0.39134,-1.380119 c -0.004,-0.0142 8e-4,-0.02952 0.0128,-0.03833 l 1.13252,-0.894527 c 0.27141,-0.202189 0.13234,-0.633416 -0.20606,-0.638943 l -1.43762,-0.0543 c -0.0144,-9.9e-4 -0.027,-0.01038 -0.0319,-0.02397 l -0.49679,-1.341778 c -0.0568,-0.155226 -0.19489,-0.232841 -0.33304,-0.232841 z m 5.42612,0 c -0.13814,0 -0.27628,0.07762 -0.33304,0.232841 l -0.49518,1.346565 c -0.005,0.01358 -0.0175,0.02297 -0.0319,0.02397 l -1.43763,0.0543 c -0.33839,0.0055 -0.47746,0.436753 -0.20605,0.638942 l 1.12773,0.886539 c 0.0115,0.0091 0.0166,0.02416 0.0128,0.03834 l -0.38816,1.375317 c -0.0915,0.318726 0.26548,0.577518 0.53991,0.39136 l 1.19163,-0.798682 c 0.012,-0.0083 0.0279,-0.0083 0.0399,0 l 1.19163,0.798682 c 0.12193,0.08671 0.28539,0.08671 0.40732,0 0.12093,-0.08681 0.17405,-0.2404 0.13259,-0.383371 l -0.39136,-1.380119 c -0.004,-0.0142 8.6e-4,-0.02952 0.0128,-0.03833 L 10.578863,2.368618 c 0.27141,-0.202189 0.13233,-0.633416 -0.20607,-0.638943 l -1.4376195,-0.0543 c -0.0144,-9.9e-4 -0.0269,-0.01038 -0.0319,-0.02397 l -0.49678,-1.341778 c -0.0568,-0.155226 -0.19491,-0.232841 -0.33306,-0.232841 z m 5.4261395,0 c -0.13815,0 -0.2763,0.07762 -0.33306,0.232841 l -0.49518,1.346565 c -0.005,0.01358 -0.0175,0.02297 -0.0319,0.02397 l -1.43762,0.0543 c -0.3384,0.0055 -0.47748,0.436753 -0.20607,0.638942 l 1.12773,0.886539 c 0.0115,0.0091 0.0166,0.02416 0.0128,0.03834 l -0.38816,1.375317 c -0.0915,0.318726 0.26547,0.577518 0.5399,0.39136 l 1.19164,-0.798682 c 0.012,-0.0083 0.0279,-0.0083 0.0399,0 l 1.19163,0.798682 c 0.12193,0.08671 0.2854,0.08671 0.40733,0 0.12093,-0.08681 0.17404,-0.2404 0.13258,-0.383371 l -0.39135,-1.380119 c -0.004,-0.0142 8.6e-4,-0.02952 0.0128,-0.03833 l 1.13252,-0.894527 c 0.27141,-0.202189 0.13234,-0.633416 -0.20606,-0.638943 l -1.43762,-0.0543 c -0.0144,-9.9e-4 -0.0269,-0.01038 -0.032,-0.02397 l -0.49677,-1.341778 c -0.0568,-0.155226 -0.19491,-0.232841 -0.33305,-0.232841 z m 5.42611,0 c -0.13814,0 -0.27628,0.07762 -0.33304,0.232841 l -0.49518,1.346565 c -0.005,0.01358 -0.0175,0.02297 -0.032,0.02397 l -1.43762,0.0543 c -0.3384,0.0055 -0.47747,0.436753 -0.20606,0.638942 l 1.12773,0.886539 c 0.0115,0.0091 0.0166,0.02416 0.0128,0.03834 l -0.38816,1.375317 c -0.0915,0.318726 0.26548,0.577518 0.53991,0.39136 l 1.19163,-0.798682 c 0.012,-0.0083 0.0279,-0.0083 0.0399,0 l 1.19163,0.798682 c 0.12193,0.08671 0.28539,0.08671 0.40732,0 0.12093,-0.08681 0.17405,-0.2404 0.13259,-0.383371 l -0.39136,-1.380119 c -0.004,-0.0142 8.6e-4,-0.02952 0.0128,-0.03833 l 1.13254,-0.894527 c 0.27141,-0.202189 0.13234,-0.633416 -0.20606,-0.638943 l -1.43762,-0.0543 c -0.0144,-9.9e-4 -0.0269,-0.01038 -0.032,-0.02397 l -0.49678,-1.341778 c -0.0568,-0.155226 -0.19491,-0.232841 -0.33306,-0.232841 z m 5.43332,7e-5 c -0.151497,-0.0030718 -0.288207,0.09045659 -0.34024,0.232771 l -0.49518,1.346565 c -0.005,0.013571 -0.01748,0.022954 -0.0319,0.02397 l -1.43762,0.0543 c -0.338398,0.00552 -0.477478,0.4367495 -0.20607,0.638942 l 1.12773,0.886539 c 0.01155,0.00907 0.01658,0.02415 0.0128,0.03834 l -0.38816,1.375317 c -0.09155,0.3187312 0.265479,0.5775284 0.53991,0.39136 l 1.19163,-0.798682 c 0.01201,-0.00828 0.02789,-0.00828 0.0399,0 l 1.19163,0.798682 c 0.121932,0.086713 0.285398,0.086713 0.40733,0 0.120932,-0.08681 0.174047,-0.2403985 0.13258,-0.383371 l -0.39135,-1.380119 c -0.0042,-0.014197 8.79e-4,-0.029529 0.0128,-0.03833 l 1.13252,-0.894527 c 0.271406,-0.2021891 0.132335,-0.6334155 -0.20606,-0.638943 l -1.43762,-0.0543 c -0.01442,-0.00102 -0.02691,-0.010399 -0.0319,-0.02397 L 24.684853,0.309627 C 24.634628,0.17225789 24.505216,0.0798179 24.358983,0.076856 Z"
     style="fill:#ffb73b;fill-opacity:1;stroke-width:0.99999934" />
</svg>
